#!OML:ASF G:\ViconDB\ViconDB\414\test\team2\shane.ASF
:FULLY-SPECIFIED
:DEGREES
145
root 0.546781 16.7164 -7.05807 -7.98783 5.65863 -8.57665
lowerback 7.90114 -1.74197 3.97353
upperback 3.14842 -1.92603 5.00871
thorax -1.12258 -0.961173 3.12119
lowerneck -13.0219 -3.25715 -8.50472
upperneck 16.7324 -4.48423 9.39558
head 7.69862 -1.82338 4.04894
rclavicle -3.15571e-014 5.96354e-014
rhumerus -41.4757 -7.14491 -78.9709
rradius 23.0812
rwrist 45.704
rhand -28.3074 -13.6943
rfingers 7.12502
rthumb -1.68277 -43.6674
lclavicle -3.15571e-014 5.96354e-014
lhumerus -22.0762 -7.22995 95.8777
lradius 24.3474
lwrist -25.1156
lhand -39.9487 5.71342
lfingers 7.12502
lthumb -12.9183 35.2936
rfemur -4.92072 -30.9812 24.0099
rtibia 31.453
rfoot -23.1063 18.1297
rtoes -4.05439
lfemur 8.32781 0.0491454 -1.00837
ltibia 55.3203
lfoot -9.10467 -23.5881
ltoes -13.1189
146
root 0.52924 16.7292 -6.88564 -7.98578 5.3306 -8.82643
lowerback 7.78752 -1.52713 4.38913
upperback 3.23962 -1.62405 5.01614
thorax -0.983011 -0.805681 2.86431
lowerneck -12.9829 -3.37516 -8.3885
upperneck 16.6705 -4.6712 9.39981
head 7.68726 -1.90573 4.00911
rclavicle 6.55989e-015 -2.5842e-014
rhumerus -40.2109 -6.02937 -80.1861
rradius 23.1733
rwrist 46.1107
rhand -27.4848 -13.6617
rfingers 7.12502
rthumb -0.88828 -43.6396
lclavicle 6.55989e-015 -2.5842e-014
lhumerus -22.3308 -6.17491 95.4031
lradius 23.2991
lwrist -25.716
lhand -40.0558 5.77918
lfingers 7.12502
lthumb -13.0216 35.3528
rfemur -3.86238 -30.5687 24.1691
rtibia 30.7724
rfoot -23.156 17.9168
rtoes -3.7743
lfemur 6.63695 0.747423 -0.379816
ltibia 57.3766
lfoot -10.5396 -22.6139
ltoes -12.9678
147
root 0.528551 16.7415 -6.69558 -8.08231 4.64615 -8.65994
lowerback 7.43306 -1.20129 4.70737
upperback 3.49562 -1.21835 4.80446
thorax -0.539125 -0.592946 2.41847
lowerneck -12.8773 -3.43 -8.049
upperneck 16.4842 -4.80838 9.37886
head 7.61217 -1.9552 3.92732
rclavicle 3.22777e-014 -2.38542e-015
rhumerus -38.7943 -5.12442 -81.6677
rradius 23.1687
rwrist 43.737
rhand -28.5443 -14.035
rfingers 7.12502
rthumb -1.9116 -44.0062
lclavicle 3.22777e-014 -2.38542e-015
lhumerus -22.8182 -5.75622 94.9098
lradius 22.6816
lwrist -25.5808
lhand -40.0924 6.41397
lfingers 7.12502
lthumb -13.0569 35.9853
rfemur -2.52511 -30.1159 23.6656
rtibia 30.1031
rfoot -23.2799 18.1509
rtoes -3.33444
lfemur 5.45584 1.74039 -0.327291
ltibia 58.9573
lfoot -11.9745 -21.5986
ltoes -12.6528
148
root 0.507963 16.7514 -6.5135 -8.09137 4.05276 -8.44843
lowerback 7.17242 -0.859496 4.58823
upperback 3.6591 -0.805914 4.67086
thorax -0.229488 -0.382805 2.30752
lowerneck -12.8804 -3.42939 -7.72939
upperneck 16.5398 -4.86132 9.29528
head 7.62603 -1.96697 3.84027
rclavicle 8.00108e-015 -7.87187e-014
rhumerus -37.33 -5.84213 -82.0169
rradius 22.8688
rwrist 45.2233
rhand -28.8127 -13.7352
rfingers 7.12502
rthumb -2.17085 -43.7039
lclavicle 8.00108e-015 -7.87187e-014
lhumerus -23.3193 -5.07675 94.3812
lradius 21.9691
lwrist -25.6719
lhand -40.2743 6.52298
lfingers 7.12502
lthumb -13.2322 36.083
rfemur -1.40004 -29.2314 23.404
rtibia 29.4643
rfoot -23.5456 17.7189
rtoes -3.81047
lfemur 4.13097 2.68162 -0.338565
ltibia 60.1933
lfoot -13.5579 -20.657
ltoes -13.1346
149
root 0.491636 16.7608 -6.33383 -8.16063 3.40417 -8.20767
lowerback 6.95953 -0.523933 4.59538
upperback 3.87068 -0.392253 4.46883
thorax 0.103093 -0.168977 2.06043
lowerneck -12.8379 -3.55252 -7.79031
upperneck 16.467 -5.08639 9.6588
head 7.62709 -2.04706 3.94732
rclavicle 6.55989e-015 3.10104e-014
rhumerus -35.9029 -3.20611 -84.0104
rradius 22.8207
rwrist 43.3404
rhand -29.0826 -14.6056
rfingers 7.12502
rthumb -2.4315 -44.5715
lclavicle 6.55989e-015 3.10104e-014
lhumerus -23.858 -4.51575 93.7412
lradius 21.1881
lwrist -26.167
lhand -40.6828 6.76104
lfingers 7.12502
lthumb -13.626 36.2951
rfemur -0.224281 -28.4554 23.0383
rtibia 28.8702
rfoot -23.8969 17.4091
rtoes -4.24376
lfemur 2.91893 3.54186 -0.370024
ltibia 61.0775
lfoot -14.6789 -20.1998
ltoes -12.8938
150
root 0.472356 16.7652 -6.16378 -8.15934 3.01855 -7.92239
lowerback 6.95821 -0.305271 4.41757
upperback 3.93972 -0.117667 4.32378
thorax 0.173635 -0.0317298 1.99045
lowerneck -12.9509 -3.44958 -7.30307
upperneck 16.6869 -5.00361 9.39594
head 7.69217 -1.99492 3.78824
rclavicle -1.08089e-014 -2.98177e-014
rhumerus -34.5301 -4.52991 -83.9068
rradius 22.5203
rwrist 46.7399
rhand -29.5558 -14.7173
rfingers 7.12502
rthumb -2.88851 -44.6775
lclavicle -1.08089e-014 -2.98177e-014
lhumerus -24.6456 -4.66621 93.2634
lradius 20.873
lwrist -25.264
lhand -40.2491 7.17791
lfingers 7.12502
lthumb -13.2079 36.7395
rfemur 0.76518 -27.5673 22.7346
rtibia 28.3189
rfoot -24.0379 16.8214
rtoes -4.0268
lfemur 1.54527 4.20891 -0.620109
ltibia 61.6771
lfoot -15.8542 -19.6649
ltoes -12.8331
